<?xml version="1.0" encoding="utf-8"?>
<!-- Generator: Adobe Illustrator 24.3.0, SVG Export Plug-In . SVG Version: 6.00 Build 0)  -->
<svg version="1.1" id="Layer_1" xmlns="http://www.w3.org/2000/svg" xmlns:xlink="http://www.w3.org/1999/xlink" x="0px" y="0px"
	 width="12px" height="12px" viewBox="0 0 12 12" style="enable-background:new 0 0 12 12;" xml:space="preserve">
<style type="text/css">
	.st0{fill-rule:evenodd;clip-rule:evenodd;fill:#858585;}
</style>
<path class="st0" d="M1.5,0C0.7,0,0,0.7,0,1.5v9C0,11.3,0.7,12,1.5,12h9c0.8,0,1.5-0.7,1.5-1.5v-9C12,0.7,11.3,0,10.5,0H1.5z
	 M6.4,3.4C6.4,3.2,6.2,3,6,3C5.8,3,5.6,3.2,5.6,3.4v2.2H3.4C3.2,5.6,3,5.8,3,6c0,0.2,0.2,0.4,0.4,0.4h2.2v2.2C5.6,8.8,5.8,9,6,9
	c0.2,0,0.4-0.2,0.4-0.4V6.4h2.2C8.8,6.4,9,6.2,9,6c0-0.2-0.2-0.4-0.4-0.4H6.4V3.4z"/>
</svg>
